# xmcd CD database file
#
# Track frame offsets:
#	150
#	12935
#	26509
#	40775
#	53800
#	67704
#	80329
#	94827
#	107252
#	120509
#	134948
#	149673
#	161489
#	176103
#	189495
#	202550
#	215640
#	229013
#	241260
#	254295
#
# Disc length: 3567 seconds
#
# Revision: 0
# Processed by: cddbd v1.5.2PL0 Copyright (c) Steve Scherf et al.
# Submitted via: CDex 1.70beta2
#
DISCID=0b0ded14
DTITLE=Georgie Auld - Jazz Roads CD296 - Big Bands
DYEAR=2006
DGENRE=Jazz
TTITLE0=Georgie Porgie
TTITLE1=Sweetheart Of All My Dreams
TTITLE2=In The Middle
TTITLE3=I'll Never Be The Same
TTITLE4=Stompin' At The Savoy
TTITLE5=Daily Double
TTITLE6=Here Comes Heaven Again
TTITLE7=It Had To Be You
TTITLE8=Air Mail Special
TTITLE9=Just A-Sittin' And A-Rockin'
TTITLE10=Time On My Hands
TTITLE11=Come To Baby, Do
TTITLE12=Stormy Weather
TTITLE13=You Haven't Changed At All
TTITLE14=Blue Moon
TTITLE15=A Hundred Years From Today
TTITLE16=I Don't Know Why
TTITLE17=Route 66
TTITLE18=Canyon Passage
TTITLE19=You're Blase
EXTD=YEAR: 2006
EXTT0=
EXTT1=
EXTT2=
EXTT3=
EXTT4=
EXTT5=
EXTT6=
EXTT7=
EXTT8=
EXTT9=
EXTT10=
EXTT11=
EXTT12=
EXTT13=
EXTT14=
EXTT15=
EXTT16=
EXTT17=
EXTT18=
EXTT19=
PLAYORDER=
